<svg xmlns="http://www.w3.org/2000/svg" enable-background="new 0 0 160 160" viewBox="0 0 160 160"><path d="M44.41 5.106c-17.068 0-30.438 20.347-30.438 46.323 0 10.491 2.211 20.367 6.395 28.561.598 1.171 1.802 1.908 3.117 1.908h41.853c1.315 0 2.519-.737 3.117-1.908 4.184-8.193 6.396-18.069 6.396-28.561C74.849 25.453 61.479 5.106 44.41 5.106zM63.134 74.897H25.686c-3.05-6.779-4.714-15.023-4.714-23.469 0-21.315 10.733-39.323 23.438-39.323s23.439 18.008 23.439 39.323C67.849 59.875 66.184 68.118 63.134 74.897zM61.734 91.285H26.226c-1.933 0-3.5 1.567-3.5 3.5v17.754c0 11.72 9.534 21.254 21.254 21.254s21.254-9.534 21.254-21.254V94.785C65.234 92.852 63.667 91.285 61.734 91.285zM58.234 112.539c0 7.859-6.395 14.254-14.254 14.254s-14.254-6.395-14.254-14.254V98.285h28.508V112.539z"/><path d="M59.331 58.743H28.739c-1.381 0-2.5 1.119-2.5 2.5s1.119 2.5 2.5 2.5h30.592c1.381 0 2.5-1.119 2.5-2.5S60.711 58.743 59.331 58.743zM25.331 45.868c0 1.381 1.119 2.5 2.5 2.5H60.99c1.381 0 2.5-1.119 2.5-2.5s-1.119-2.5-2.5-2.5H27.831C26.45 43.368 25.331 44.487 25.331 45.868zM32.474 27.993c-1.381 0-2.5 1.119-2.5 2.5s1.119 2.5 2.5 2.5h23.872c1.381 0 2.5-1.119 2.5-2.5s-1.119-2.5-2.5-2.5H32.474zM115.589 26.207c-17.068 0-30.438 20.347-30.438 46.322 0 10.49 2.211 20.366 6.395 28.561.598 1.171 1.802 1.908 3.117 1.908h41.854c1.315 0 2.519-.737 3.117-1.908 4.184-8.193 6.396-18.069 6.396-28.561C146.029 46.553 132.659 26.207 115.589 26.207zM134.314 95.998H96.865c-3.05-6.78-4.714-15.023-4.714-23.469 0-21.314 10.733-39.322 23.438-39.322s23.439 18.008 23.439 39.322C139.029 80.975 137.364 89.219 134.314 95.998zM132.914 112.385H97.406c-1.933 0-3.5 1.567-3.5 3.5v17.755c0 11.72 9.534 21.254 21.254 21.254s21.254-9.534 21.254-21.254v-17.755C136.414 113.953 134.846 112.385 132.914 112.385zM129.414 133.64c0 7.859-6.395 14.254-14.254 14.254s-14.254-6.395-14.254-14.254v-14.255h28.508V133.64z"/><path d="M130.51 79.844H99.918c-1.381 0-2.5 1.119-2.5 2.5s1.119 2.5 2.5 2.5h30.592c1.381 0 2.5-1.119 2.5-2.5S131.891 79.844 130.51 79.844zM96.51 66.969c0 1.381 1.119 2.5 2.5 2.5h33.159c1.381 0 2.5-1.119 2.5-2.5s-1.119-2.5-2.5-2.5H99.01C97.629 64.469 96.51 65.589 96.51 66.969zM103.654 49.094c-1.381 0-2.5 1.119-2.5 2.5s1.119 2.5 2.5 2.5h23.872c1.381 0 2.5-1.119 2.5-2.5s-1.119-2.5-2.5-2.5H103.654z"/></svg>