<svg xmlns="http://www.w3.org/2000/svg" data-name="Layer 1" viewBox="0 0 32 32"><path d="M13.52588,9.66553A9.92753,9.92753,0,0,0,5.86377,8.436,7.41706,7.41706,0,0,0,3.106,9.67969a3.77187,3.77187,0,0,0-1.53564,2.4624c-.28809,1.90186,1.06055,3.1543,2.25049,4.25977A10.33528,10.33528,0,0,1,5.31348,17.9873,5.31164,5.31164,0,0,1,6.17676,21.541a12.43633,12.43633,0,0,1-.67822,2.69482c-.11475.33594-.25781.65967-.3999.98242A7.88321,7.88321,0,0,0,4.45557,27.104a4.00018,4.00018,0,0,0,.74463,3.23828,4.64518,4.64518,0,0,0,3.21338,1.53613c.17871.01563.35693.02344.53369.02344a4.93831,4.93831,0,0,0,3.189-1.06348,4.94334,4.94334,0,0,0,1.41064-2.3877,20.504,20.504,0,0,0,.64453-5.4043,20.5085,20.5085,0,0,1,.53369-4.91406c.11377-.41357.251-.82275.3877-1.23145.17676-.5293.35938-1.07617.49365-1.63525a5.3564,5.3564,0,0,0-.06982-3.21045A5.16054,5.16054,0,0,0,13.52588,9.66553Zm1.10791,5.3667c-.12354.5166-.2915,1.019-.46973,1.55127-.14258.42627-.28467.85254-.40283,1.28418a21.55157,21.55157,0,0,0-.56934,5.1499,19.48846,19.48846,0,0,1-.60205,5.14453,3.88891,3.88891,0,0,1-1.105,1.91748,4.07508,4.07508,0,0,1-2.98193.80273,3.6523,3.6523,0,0,1-2.52686-1.1709A3.08229,3.08229,0,0,1,5.44189,27.269a7.03753,7.03753,0,0,1,.57178-1.64795c.15332-.34863.30713-.69873.43115-1.062a13.32715,13.32715,0,0,0,.72705-2.91846,6.306,6.306,0,0,0-1.03613-4.22168,11.16434,11.16434,0,0,0-1.63428-1.74951C3.34717,14.59668,2.3501,13.6709,2.55908,12.2915a2.80692,2.80692,0,0,1,1.15625-1.81885A6.41967,6.41967,0,0,1,6.09912,9.40771a9.23336,9.23336,0,0,1,2.168-.25537,8.508,8.508,0,0,1,4.7002,1.34229,4.23758,4.23758,0,0,1,1.63477,1.91553A4.40967,4.40967,0,0,1,14.63379,15.03223Zm12.99268.10107a7.57459,7.57459,0,0,0-5.84131-.939,5.69222,5.69222,0,0,0-2.11328.9541,2.99424,2.99424,0,0,0-1.19922,1.92627c-.22461,1.49023.81152,2.45313,1.72607,3.30225a7.69257,7.69257,0,0,1,1.10059,1.168,3.85738,3.85738,0,0,1,.62549,2.57959,9.21739,9.21739,0,0,1-.50244,1.99121c-.085.248-.19092.4873-.2959.72559a6.01135,6.01135,0,0,0-.49072,1.44336,3.12055,3.12055,0,0,0,.585,2.52686,3.605,3.605,0,0,0,2.49414,1.19629c.13721.0127.27393.01855.40967.01855a3.41093,3.41093,0,0,0,3.56787-2.67529,15.47168,15.47168,0,0,0,.48779-4.08252,15.31387,15.31387,0,0,1,.39551-3.65234c.085-.30859.187-.61279.28857-.91748.13721-.40918.27344-.81836.37354-1.23535a4.14007,4.14007,0,0,0-.05713-2.47949A3.99158,3.99158,0,0,0,27.62646,15.1333ZM28.26514,19.23c-.09326.38867-.22168.77-.34912,1.15186-.10742.32178-.21484.64355-.3042.96924a16.25728,16.25728,0,0,0-.43115,3.88867,14.52091,14.52091,0,0,1-.44531,3.82324,2.75436,2.75436,0,0,1-.79,1.377,2.94412,2.94412,0,0,1-2.14111.57227,2.61489,2.61489,0,0,1-1.80811-.83154,2.18684,2.18684,0,0,1-.374-1.731,5.18065,5.18065,0,0,1,.41943-1.20508c.1167-.26465.23291-.53027.32715-.80566a10.06589,10.06589,0,0,0,.55127-2.21484,4.85345,4.85345,0,0,0-.79785-3.24756,8.5036,8.5036,0,0,0-1.24268-1.332c-.83936-.7793-1.564-1.45264-1.418-2.42041a1.98994,1.98994,0,0,1,.81982-1.28271,4.6987,4.6987,0,0,1,1.73926-.77539,6.53562,6.53562,0,0,1,5.04736.79639,3.05358,3.05358,0,0,1,1.17822,1.376A3.19172,3.19172,0,0,1,28.26514,19.23Zm.80566-8.84375a1.378,1.378,0,0,0-.51965.05084A1.782,1.782,0,0,0,27.15527,8.645a1.37284,1.37284,0,0,0-1.03442.34106c-.01947-.04407-.02411-.09784-.04614-.13989a1.39137,1.39137,0,0,0-2.42578-.25684c-.01532.01849-.02283.04523-.03766.06433a2.87148,2.87148,0,0,0-.20258-.33826,2.58346,2.58346,0,0,0-1.81934-1.064A2.80212,2.80212,0,0,0,18.60352,9.853,2.80752,2.80752,0,0,0,20.978,13.02246a2.51509,2.51509,0,0,0,.27.01465A2.6015,2.6015,0,0,0,22.98,12.36377a2.895,2.895,0,0,0,.50177-.60345,1.409,1.409,0,0,0,.99188.62445,1.26206,1.26206,0,0,0,.13525.00732,1.41377,1.41377,0,0,0,.90051-.34424c.019.04272.02338.09491.0448.13574a1.48576,1.48576,0,0,0,1.13672.84619,1.20174,1.20174,0,0,0,.13232.00732,1.30958,1.30958,0,0,0,.441-.0874A1.66453,1.66453,0,0,0,28.646,14.39453a1.38069,1.38069,0,0,0,.14844.00781A1.87708,1.87708,0,0,0,30.48584,12.563,1.83688,1.83688,0,0,0,29.0708,10.38623Zm-6.10156-.0708a2.00888,2.00888,0,0,1-.65234,1.2998,1.6058,1.6058,0,0,1-1.2334.41309A1.81006,1.81006,0,0,1,19.59766,9.9585,1.83573,1.83573,0,0,1,21.32373,8.2373c.05273,0,.10645.00293.16016.0083a1.5965,1.5965,0,0,1,1.11963.6626A2.00579,2.00579,0,0,1,22.96924,10.31543Zm1.60938,1.0752c-.29883-.03174-.57861-.57959-.50635-1.26514a1.72075,1.72075,0,0,1,.3457-.897.58857.58857,0,0,1,.38672-.23584l.02783.00146c.18213.01953.31006.22754.35645.31592a1.71528,1.71528,0,0,1,.1499.94922C25.26611,10.94434,24.87256,11.418,24.57861,11.39063Zm2.63232.41064a.52763.52763,0,0,1-.415.23438c-.18213-.01953-.30957-.22754-.356-.31592a1.71528,1.71528,0,0,1-.1499-.94922c.07031-.66455.4375-1.13281.73193-1.13281l.02832.00146c.29883.03174.57861.57959.50586,1.26514A1.71632,1.71632,0,0,1,27.21094,11.80127Zm1.54053,1.59912c-.29932-.03223-.58887-.48242-.52637-1.07715.061-.57178.41211-.94434.70508-.94434l.03516.00146c.29932.03223.58887.48242.52637,1.07715C29.42822,13.05225,29.06592,13.42529,28.75146,13.40039ZM15.30664,4.1748a1.65064,1.65064,0,0,0-.825.12158,2.287,2.287,0,0,0-1.73114-2.44531,1.73991,1.73991,0,0,0-1.41016.55634A1.93872,1.93872,0,0,0,9.7915.99023a1.81785,1.81785,0,0,0-1.57422.72705,2.81664,2.81664,0,0,0-.20087.28827,3.69516,3.69516,0,0,0-.38263-.6618A3.283,3.283,0,0,0,5.32324-.0083,3.58463,3.58463,0,0,0,1.52295,3.31445a3.84122,3.84122,0,0,0,.709,2.69336A3.28108,3.28108,0,0,0,4.542,7.35986a3.14437,3.14437,0,0,0,.3374.01807A3.45679,3.45679,0,0,0,7.85706,5.53735a1.78791,1.78791,0,0,0,1.35.97192,1.5276,1.5276,0,0,0,.16309.00879,1.78294,1.78294,0,0,0,1.246-.56726,1.93928,1.93928,0,0,0,1.54938,1.41931,1.43337,1.43337,0,0,0,.15869.0083,1.627,1.627,0,0,0,.72864-.181,2.13384,2.13384,0,0,0,1.722,1.99347,1.55045,1.55045,0,0,0,.17139.00928,1.89581,1.89581,0,0,0,1.37646-.6416,2.89078,2.89078,0,0,0,.72314-1.66309A2.31523,2.31523,0,0,0,15.30664,4.1748Zm-7.958-.24316A2.577,2.577,0,0,1,4.64746,6.36572a2.295,2.295,0,0,1-1.61084-.95117,2.84482,2.84482,0,0,1-.51953-1.99463A2.61526,2.61526,0,0,1,4.98584.97363a2.18416,2.18416,0,0,1,.23193.01221A2.294,2.294,0,0,1,6.82861,1.937,2.84575,2.84575,0,0,1,7.34863,3.93164Zm3.16162-.07471c-.11035,1.04-.70313,1.70068-1.19824,1.6582-.478-.05078-.93408-.83252-.82422-1.87256a2.4617,2.4617,0,0,1,.49854-1.28613.92064.92064,0,0,1,.64355-.375.54779.54779,0,0,1,.05615.00293C10.16406,2.03516,10.62012,2.81689,10.51025,3.85693Zm2.959.86084a2.4617,2.4617,0,0,1-.49854,1.28613A.87755.87755,0,0,1,12.271,6.376c-.478-.05078-.93408-.83252-.82422-1.87256.10693-1.00342.67773-1.66064,1.147-1.66064.01709,0,.03418.001.05127.00244C13.123,2.896,13.5791,3.67773,13.46924,4.71777ZM16.05176,6.79a1.91594,1.91594,0,0,1-.46143,1.0874.88746.88746,0,0,1-.71.31934c-.54834-.05811-.938-.80078-.85107-1.62109a1.91738,1.91738,0,0,1,.46143-1.0874.92371.92371,0,0,1,.64111-.32275.66576.66576,0,0,1,.06934.00342C15.749,5.22705,16.13867,5.96973,16.05176,6.79Z"/></svg>