<svg xmlns="http://www.w3.org/2000/svg" width="32" height="32" viewBox="0 0 8.467 8.467"><path d="m 2.9512411,289.59219 c -1.0410653,0 -1.8923936,0.84298 -1.8923909,1.87896 0.00993,0.25759 0.052819,0.54534 0.1054199,0.76791 H 0.79271655 c -0.36078683,-0.008 -0.36078683,0.53727 0,0.52917 H 1.3296347 c 0.4636696,1.20492 1.5012602,2.40959 2.7739909,3.13831 0.081072,0.0461 0.1804107,0.0461 0.2614827,0 0.8414088,-0.48176 1.5915153,-1.20447 2.1388874,-1.99575 0.256595,-0.37093 0.4672923,-0.7569 0.6216676,-1.14256 h 0.5482868 c 0.3607869,0.008 0.3607869,-0.53727 0,-0.52917 H 7.2987794 c 0.069948,-0.26682 0.1060453,-0.51557 0.1095539,-0.76791 2.9e-6,-1.03598 -0.8518406,-1.87896 -1.8929077,-1.87896 -0.4846085,0 -0.9402149,0.18422 -1.2836424,0.49868 -0.3431472,-0.31368 -0.7963824,-0.49868 -1.2805421,-0.49868 z m 0,0.52969 c 0.4216702,0 0.8101928,0.1904 1.0645344,0.50539 0.098669,0.12225 0.2814931,0.13211 0.3927409,0.0212 0.3280738,-0.28814 0.7371127,-0.52057 1.1069092,-0.52658 0.7450942,0 1.3423434,0.58248 1.3616741,1.31309 -0.016613,0.28316 -0.060114,0.57506 -0.1276418,0.80409 H 5.5567657 c -0.070124,-5.3e-4 -0.1375931,0.0268 -0.1875854,0.076 l -0.2697509,0.26976 -0.3648358,-0.72864 c -0.097699,-0.19436 -0.3751405,-0.19436 -0.4728392,0 l -0.2656168,0.53123 -0.3105753,-0.77721 c -0.040482,-0.10129 -0.1389709,-0.16736 -0.2480469,-0.1664 -0.088206,8.7e-4 -0.1701792,0.0456 -0.2185914,0.11937 l -0.449585,0.67593 H 1.7239258 c -0.075532,-0.28166 -0.1263792,-0.55814 -0.1333251,-0.81597 0.025504,-0.725 0.6196147,-1.30121 1.3606404,-1.30121 z m 0.4294312,2.15232 0.3420978,0.85525 c 0.084151,0.21206 0.3792762,0.22534 0.4821412,0.0217 l 0.2930054,-0.58601 0.2930054,0.58601 c 0.081001,0.16133 0.296209,0.19597 0.4237466,0.0682 l 0.4511352,-0.45113 h 0.8826336 c -0.1273717,0.28041 -0.2887591,0.56524 -0.480074,0.84181 -0.4705162,0.68018 -1.132854,1.27957 -1.8339967,1.71462 -1.0118275,-0.62788 -1.8583102,-1.61288 -2.3027017,-2.55643 H 2.9099 c 0.089123,-10e-6 0.1722575,-0.0449 0.221175,-0.11938 z" color="#000" font-family="sans-serif" font-weight="400" overflow="visible" paint-order="stroke fill markers" transform="translate(0 -288.533)" style="line-height:normal;font-variant-ligatures:normal;font-variant-position:normal;font-variant-caps:normal;font-variant-numeric:normal;font-variant-alternates:normal;font-feature-settings:normal;text-indent:0;text-align:start;text-decoration-line:none;text-decoration-style:solid;text-decoration-color:#000;text-transform:none;text-orientation:mixed;shape-padding:0;isolation:auto;mix-blend-mode:normal"/></svg>