<svg xmlns="http://www.w3.org/2000/svg" viewBox="0 0 32 32"><g data-name="Layer 2"><path d="M23.54,27H8.46A3.46,3.46,0,0,1,5,23.54V8.46A3.46,3.46,0,0,1,8.46,5H23.54A3.46,3.46,0,0,1,27,8.46V23.54A3.46,3.46,0,0,1,23.54,27ZM8.46,7A1.46,1.46,0,0,0,7,8.46V23.54A1.46,1.46,0,0,0,8.46,25H23.54A1.46,1.46,0,0,0,25,23.54V8.46A1.46,1.46,0,0,0,23.54,7Z"/><path d="M22 7H10V3a2 2 0 0 1 2-2h8a2 2 0 0 1 2 2zM12 5h8V3H12zM20 31H12a2 2 0 0 1-2-2V25H22v4A2 2 0 0 1 20 31zm-8-4v2h8V27zM16 22.56a6.59 6.59 0 0 1-6.4-6.4 6.51 6.51 0 0 1 5.35-6.5 1 1 0 0 1 1.15 1h0a1 1 0 0 1-.83 1 4.5 4.5 0 1 0 5.25 5.25 1 1 0 0 1 1-.83h0a1 1 0 0 1 1 1.15A6.51 6.51 0 0 1 16 22.56z"/><rect width="2" height="2" x="15" y="15" rx="1" ry="1"/></g></svg>